<svg width="251" height="247" viewBox="0 0 251 247" fill="none" xmlns="http://www.w3.org/2000/svg">
<path fill-rule="evenodd" clip-rule="evenodd" d="M110.622 32.194C126.692 32.1239 141.962 35.394 155.716 41.2746C149.274 39.6325 142.523 38.7764 135.548 38.8045C92.9519 39.015 58.3418 72.5584 58.6646 114.144C59.0015 156.206 94.8746 189.806 138.341 188.767C181.33 187.729 214.859 153.133 213.652 111.912C213.455 105.161 212.333 98.6493 210.438 92.4739C216.992 105.597 220.866 120.249 221.329 135.814C223.097 194.578 175.393 244.458 113.878 246.381C51.3946 248.345 -0.0012207 200.192 -0.0012207 139.701C-0.0012207 80.1793 49.9069 32.4326 110.622 32.194Z" fill="#2B2B2B"/>
<path fill-rule="evenodd" clip-rule="evenodd" d="M136.165 71.8426C159.604 71.6321 178.958 89.7371 179.505 112.418C180.066 135.238 161.414 154.213 137.709 154.691C113.864 155.168 94.187 136.726 93.8922 113.653C93.5975 90.7196 112.587 72.0532 136.165 71.8426Z" fill="#2B2B2B"/>
<path fill-rule="evenodd" clip-rule="evenodd" d="M208.445 0.362915C231.224 0.362915 250.213 18.1171 250.971 40.1518C251.743 62.3129 233.792 80.5723 210.761 80.8109C187.73 81.0495 168.291 62.9866 167.772 40.5729C167.267 18.3135 185.526 0.362915 208.445 0.362915Z" fill="#2B2B2B"/>
</svg>
