<svg width="125" height="34" viewBox="0 0 125 34" fill="none" xmlns="http://www.w3.org/2000/svg">
<g clip-path="url(#clip0_1_229)">
<path d="M43.3985 30.4306V7.33189H55.0411C59.7058 7.33189 62.0535 11.1269 62.0535 14.6905C62.0535 18.2542 59.7058 21.9172 55.0411 21.9172H48.6248V30.4306H43.3985ZM48.6248 18.3861H54.2803C56.4305 18.3861 57.82 16.6368 57.82 14.6905C57.82 12.7443 56.4305 10.863 54.2803 10.863H48.6248V18.3861Z" fill="white"/>
<path d="M68.8684 7.33189V17H78.0962V7.33189H83.3225V30.4287H78.0962V20.7606H68.8684V30.4287H63.6422V7.33189H68.8684Z" fill="white"/>
<path d="M85.3731 30.4306V7.33189H97.0157C101.68 7.33189 104.028 11.1269 104.028 14.6905C104.028 18.2542 101.68 21.9172 97.0157 21.9172H90.5993V30.4306H85.3731ZM90.5993 18.3861H96.2548C98.4051 18.3861 99.7946 16.6368 99.7946 14.6905C99.7946 12.7443 98.4051 10.863 96.2548 10.863H90.5993V18.3861Z" fill="white"/>
<path d="M105.617 7.33189H116.598C121.593 7.33189 124.504 10.4673 124.504 14.8549C124.504 18.2542 122.453 21.5865 118.814 21.7509L124.998 30.4287H119.672L111.734 19.1432H115.968C118.448 19.1432 119.772 17.3939 119.772 15.2488C119.772 13.1037 118.45 11.2225 115.803 11.2225H110.841V30.4268H105.615V7.33189H105.617Z" fill="white"/>
<path fill-rule="evenodd" clip-rule="evenodd" d="M14.7722 4.52914C16.9531 4.52914 19.0248 5.00137 20.8876 5.84831C20.0118 5.61124 19.0919 5.48315 18.1413 5.48315C12.3727 5.48315 7.69655 10.148 7.69655 15.9026C7.69655 21.6572 12.3727 26.3221 18.1413 26.3221C23.9099 26.3221 28.5861 21.6572 28.5861 15.9026C28.5861 14.9544 28.4577 14.0367 28.2201 13.163C29.0691 15.0213 29.5424 17.088 29.5424 19.2636C29.5424 27.4023 22.9287 34 14.7703 34C6.61375 34 0 27.4023 0 19.2636C0 11.1269 6.61375 4.52914 14.7722 4.52914Z" fill="white"/>
<path d="M22.222 19.9736C24.4756 17.7255 24.4756 14.0807 22.222 11.8326C19.9685 9.58455 16.3149 9.58455 14.0613 11.8326C11.8078 14.0807 11.8078 17.7255 14.0613 19.9736C16.3149 22.2216 19.9685 22.2216 22.222 19.9736Z" fill="#17E5C2"/>
<path d="M33.9263 7.0783C34.6584 3.98408 32.7374 0.883684 29.6357 0.153381C26.5339 -0.576923 23.426 1.33941 22.6939 4.43364C21.9618 7.52786 23.8828 10.6283 26.9846 11.3586C30.0863 12.0889 33.1942 10.1725 33.9263 7.0783Z" fill="white"/>
</g>
<defs>
<clipPath id="clip0_1_229">
<rect width="125" height="34" fill="white"/>
</clipPath>
</defs>
</svg>
