<svg width="38" height="38" viewBox="0 0 38 38" fill="none" xmlns="http://www.w3.org/2000/svg">
<circle cx="18.9497" cy="18.9497" r="18.9497" fill="#171717"/>
<path d="M12.3241 21.2169L11.0574 19.9503C10.5408 19.4336 10.5408 18.5836 11.0574 18.0669L12.3241 16.8002C12.5407 16.5836 12.7157 16.1586 12.7157 15.8586V14.0669C12.7157 13.3335 13.3158 12.7336 14.0491 12.7336H15.8407C16.1407 12.7336 16.5658 12.5586 16.7824 12.3419L18.0491 11.0752C18.5657 10.5586 19.4158 10.5586 19.9324 11.0752L21.1991 12.3419C21.4158 12.5586 21.8407 12.7336 22.1407 12.7336H23.9324C24.6658 12.7336 25.2657 13.3335 25.2657 14.0669V15.8586C25.2657 16.1586 25.4407 16.5836 25.6574 16.8002L26.9241 18.0669C27.4408 18.5836 27.4408 19.4336 26.9241 19.9503L25.6574 21.2169C25.4407 21.4336 25.2657 21.8586 25.2657 22.1586V23.9502C25.2657 24.6835 24.6658 25.2836 23.9324 25.2836H22.1407C21.8407 25.2836 21.4158 25.4586 21.1991 25.6753L19.9324 26.9419C19.4158 27.4586 18.5657 27.4586 18.0491 26.9419L16.7824 25.6753C16.5658 25.4586 16.1407 25.2836 15.8407 25.2836H14.0491C13.3158 25.2836 12.7157 24.6835 12.7157 23.9502V22.1586C12.7157 21.8503 12.5407 21.4253 12.3241 21.2169Z" stroke="#14DABA" stroke-width="1.6" stroke-linecap="round" stroke-linejoin="round"/>
<path d="M16.5 21.5L21.5 16.5" stroke="#14DABA" stroke-width="1.6" stroke-linecap="round" stroke-linejoin="round"/>
<path d="M21.0788 21.0834H21.0863" stroke="#14DABA" stroke-width="1.6" stroke-linecap="round" stroke-linejoin="round"/>
<path d="M16.9121 16.9167H16.9196" stroke="#14DABA" stroke-width="1.6" stroke-linecap="round" stroke-linejoin="round"/>
</svg>
