<svg width="38" height="38" viewBox="0 0 38 38" fill="none" xmlns="http://www.w3.org/2000/svg">
<circle cx="18.9497" cy="18.9497" r="18.9497" fill="#171717"/>
<path d="M21.9834 18.9999C21.9834 20.6499 20.6501 21.9833 19.0001 21.9833C17.3501 21.9833 16.0167 20.6499 16.0167 18.9999C16.0167 17.3499 17.3501 16.0166 19.0001 16.0166C20.6501 16.0166 21.9834 17.3499 21.9834 18.9999Z" stroke="#14DABA" stroke-width="1.6" stroke-linecap="round" stroke-linejoin="round"/>
<path d="M19 25.8918C21.9417 25.8918 24.6833 24.1584 26.5917 21.1584C27.3417 19.9834 27.3417 18.0084 26.5917 16.8334C24.6833 13.8334 21.9417 12.1001 19 12.1001C16.0583 12.1001 13.3167 13.8334 11.4083 16.8334C10.6583 18.0084 10.6583 19.9834 11.4083 21.1584C13.3167 24.1584 16.0583 25.8918 19 25.8918Z" stroke="#14DABA" stroke-width="1.6" stroke-linecap="round" stroke-linejoin="round"/>
</svg>
