<svg width="293" height="288" viewBox="0 0 293 288" fill="none" xmlns="http://www.w3.org/2000/svg">
<path fill-rule="evenodd" clip-rule="evenodd" d="M148.211 52.0049C164.033 54.816 178.469 60.77 190.947 69.0205C184.904 66.2504 178.416 64.1982 171.548 62.9757C129.604 55.5485 89.5427 82.3457 82.4071 123.316C75.1998 164.757 104.47 204.242 147.419 211.011C189.898 217.694 229.085 189.667 235.285 148.898C236.301 142.221 236.364 135.613 235.607 129.198C239.703 143.283 240.888 158.393 238.554 173.788C229.762 231.918 173.89 272.44 113.026 263.307C51.2024 254.041 9.2692 197.456 20.1106 137.945C30.7785 79.3867 88.4359 41.3579 148.211 52.0049Z" fill="#2B2B2B"/>
<path fill-rule="evenodd" clip-rule="evenodd" d="M166.234 95.5896C189.331 99.5832 205.127 120.864 201.6 143.275C198.063 165.827 176.311 181.152 152.905 177.373C129.36 173.569 113.307 151.899 117.152 129.146C120.973 106.532 143 91.5708 166.234 95.5896Z" fill="#2B2B2B"/>
<path fill-rule="evenodd" clip-rule="evenodd" d="M250.155 38.2216C272.565 42.3041 288.064 63.1742 284.861 84.988C281.648 106.929 260.716 121.675 238.015 117.782C215.314 113.889 199.427 92.6347 202.934 70.4908C206.426 48.5014 227.607 34.114 250.155 38.2216Z" fill="#2B2B2B"/>
</svg>
