<svg width="77" height="81" viewBox="0 0 77 81" fill="none" xmlns="http://www.w3.org/2000/svg">
<path opacity="0.8" d="M76.9701 14.6633C76.9701 16.6749 76.5217 18.599 75.7146 20.3482C75.2961 21.2519 74.7879 22.1265 74.1602 22.9136L56.1946 52.6789L36.6746 34.983L50.0665 8.80356L50.3356 8.30796C52.6971 3.90584 57.4202 0.903076 62.8607 0.903076C70.6627 0.903076 77 7.05437 77 14.6633H76.9701Z" fill="#7C7C7C"/>
<path d="M60.2392 45.9918L40.1695 78.7439C38.7936 80.9895 35.4138 80.9312 34.1276 78.6272L2.24337 22.1642L1.25633 20.3851C1.25633 20.3851 1.25633 20.356 1.25633 20.3268C0.448758 18.6061 0.000105381 16.6812 0.000105381 14.6688C-0.0298048 7.05684 6.31115 0.903076 14.0878 0.903076C19.5614 0.903076 24.2872 3.90705 26.6501 8.34009L44.2971 37.1549C45.9721 39.8964 48.335 42.0837 51.0568 43.6295C53.8085 45.146 56.9491 45.9918 60.2093 45.9918H60.2392Z" fill="#4A4A4A"/>
</svg>
